<?xml version="1.0" encoding="UTF-8"?><svg version="1.1" width="1799px" height="302px" viewBox="0 0 1799.0 302.0" xmlns="http://www.w3.org/2000/svg" xmlns:xlink="http://www.w3.org/1999/xlink"><defs><clipPath id="i0"><path d="M1799,0 L1799,302 L0,302 L0,0 L1799,0 Z"></path></clipPath><clipPath id="i1"><path d="M0,0 L214.285714,0 L214.285714,70.3004292 L71.4285714,70.3004292 L71.4285714,140.600858 L0,140.600858 L0,70.3004292 L0,0 Z M214.285714,70.3004292 L285.714286,70.3004292 L285.714286,140.600858 L285.714286,210.901288 L214.285714,210.901288 L214.285714,280 L0,280 L0,209.699571 L214.285714,209.699571 L214.285714,140.600858 L214.285714,70.3004292 Z"></path></clipPath><clipPath id="i2"><path d="M214.285714,70.3004292 L285.714286,70.3004292 L285.714286,140.600858 L285.714286,210.901288 L214.285714,210.901288 L214.285714,280 L71.4285714,280 L0,280 L0,209.699571 L71.4285714,209.699571 L214.285714,209.699571 L214.285714,140.600858 L214.285714,70.3004292 Z M0,70.3004292 L0,0 L71.4285714,0 L214.285714,0 L214.285714,70.3004292 L71.4285714,70.3004292 L0,70.3004292 Z"></path></clipPath><clipPath id="i3"><path d="M220.749002,40.2209945 C249.784456,40.2209945 264.302184,64.3535912 264.302184,93.1116022 C264.302184,121.869613 249.784456,145.801105 220.749002,145.801105 C195.88988,145.801105 186.343977,132.930387 181.17328,119.456354 L173.218361,119.456354 L179.18455,137.555801 L179.18455,182 L147.364874,182 L147.364874,42.2320442 L179.18455,42.2320442 L179.18455,48.4662983 L173.218361,66.5657459 L181.17328,66.5657459 C186.343977,53.0917127 195.88988,40.2209945 220.749002,40.2209945 Z M580.112468,13.0718232 L580.112468,42.2320442 L613.125382,42.2320442 L613.125382,70.3867403 L580.112468,70.3867403 L580.112468,117.646409 L617.102841,115.635359 L617.102841,143.790055 L565.196995,145.801105 C554.258981,146.203315 548.292792,139.767956 548.292792,128.707182 L548.292792,70.3867403 L524.428035,70.3867403 L524.428035,42.2320442 L548.292792,42.2320442 L548.292792,23.1270718 L580.112468,13.0718232 Z M61.4517492,0 C104.408312,0 123.69899,22.121547 123.69899,50.2762431 L91.8793144,50.2762431 C91.8793144,32.9812155 78.7536981,28.1546961 61.4517492,28.1546961 C47.132895,28.1546961 38.1836112,31.3723757 38.1836112,38.6121547 C38.1836112,45.0475138 41.5644517,47.4607735 64.0370979,55.1027624 C89.8905846,63.9513812 129.466307,75.2132597 129.466307,104.775691 C129.466307,129.109392 112.562104,145.801105 69.4066682,145.801105 C18.8929326,145.801105 0,124.886188 0,89.0895028 L31.819676,89.0895028 C31.819676,110.80884 42.5588166,117.646409 70.4010331,117.646409 C90.8849495,117.646409 97.6466307,112.81989 97.6466307,105.177901 C97.6466307,94.921547 80.5435548,90.2961326 60.0596384,83.2574586 C30.4275652,73.2022099 6.3639352,65.158011 6.3639352,37.4055249 C6.3639352,13.2729282 25.2568678,0 61.4517492,0 Z M333.112233,40.2209945 C364.33529,40.2209945 386.211317,58.9237569 386.211317,89.6928177 L386.211317,99.7480663 L310.042968,99.7480663 C310.042968,111.412155 318.395633,119.657459 336.493073,119.657459 C347.62996,119.657459 355.982625,115.635359 357.971355,107.99337 L389.791031,107.99337 C387.802301,122.674033 371.295844,145.801105 336.493073,145.801105 C297.911716,145.801105 280.212022,120.461878 280.212022,91.7038674 C280.212022,59.5270718 301.889176,40.2209945 333.112233,40.2209945 Z M460.58981,40.2209945 C488.03428,40.2209945 513.092275,55.3038674 514.484386,84.2629834 L482.66471,84.2629834 C481.471472,75.2132597 473.31768,68.3756906 460.58981,68.3756906 C445.475464,68.3756906 437.520545,77.4254144 437.520545,92.9104972 C437.520545,108.596685 445.475464,117.646409 460.58981,117.646409 C473.31768,117.646409 481.471472,110.80884 482.66471,101.759116 L514.484386,101.759116 C513.092275,130.718232 488.03428,145.801105 460.58981,145.801105 C428.571261,145.801105 405.700869,126.897238 405.700869,92.9104972 C405.700869,59.1248619 428.571261,40.2209945 460.58981,40.2209945 Z M687.702747,40.2209945 C719.124677,40.2209945 744.182672,57.5160221 744.182672,92.9104972 C744.182672,128.506077 719.124677,145.801105 687.702747,145.801105 C656.081944,145.801105 631.023949,128.506077 631.023949,92.9104972 C631.023949,57.5160221 656.081944,40.2209945 687.702747,40.2209945 Z M780.80201,40.6187619 L781.173045,40.6232044 L847,42.2320442 L847,70.3867403 L795.889645,69.1801105 L795.889645,143.790055 L764.069969,143.790055 L764.069969,57.5160221 C764.069969,46.4552486 770.235032,40.4220994 781.173045,40.6232044 Z M205.833529,68.3756906 C188.730453,68.3756906 179.18455,75.8165746 179.18455,93.1116022 C179.18455,110.40663 188.730453,117.646409 205.833529,117.646409 C222.936605,117.646409 232.482508,110.40663 232.482508,93.1116022 C232.482508,75.8165746 222.936605,68.3756906 205.833529,68.3756906 Z M687.702747,68.3756906 C672.588401,68.3756906 662.843625,76.0176796 662.843625,92.9104972 C662.843625,110.00442 672.588401,117.646409 687.702747,117.646409 C702.61822,117.646409 712.362996,110.00442 712.362996,92.9104972 C712.362996,76.0176796 702.61822,68.3756906 687.702747,68.3756906 Z M333.112233,66.3646409 C315.412538,66.3646409 310.042968,74.0066298 310.042968,81.6486188 L356.380371,81.6486188 C356.380371,74.0066298 350.811928,66.3646409 333.112233,66.3646409 Z"></path></clipPath></defs><g clip-path="url(#i0)"><g transform="translate(1089.0 9.999999999999943)"><g clip-path="url(#i1)"><polygon points="0,0 285.714286,0 285.714286,280 0,280 0,0" stroke="none" fill="#18D7AC"></polygon></g></g><g transform="translate(1303.285714285714 9.999999999999886)"><g clip-path="url(#i2)"><polygon points="0,0 285.714286,0 285.714286,280 0,280 0,0" stroke="none" fill="#2618D7"></polygon></g></g><g transform="translate(180.0 73.0)"><g clip-path="url(#i3)"><polygon points="0,0 847,0 847,182 0,182 0,0" stroke="none" fill="#6631FF"></polygon></g></g></g></svg>