<?xml version="1.0" encoding="UTF-8"?><svg version="1.1" width="512px" height="512px" viewBox="0 0 512.0 512.0" xmlns="http://www.w3.org/2000/svg" xmlns:xlink="http://www.w3.org/1999/xlink"><defs><clipPath id="i0"><path d="M512,0 L512,512 L0,512 L0,0 L512,0 Z"></path></clipPath><clipPath id="i1"><path d="M0,0 L214.285714,0 L214.285714,70.3004292 L71.4285714,70.3004292 L71.4285714,140.600858 L0,140.600858 L0,70.3004292 L0,0 Z M214.285714,70.3004292 L285.714286,70.3004292 L285.714286,140.600858 L285.714286,210.901288 L214.285714,210.901288 L214.285714,280 L0,280 L0,209.699571 L214.285714,209.699571 L214.285714,140.600858 L214.285714,70.3004292 Z"></path></clipPath><clipPath id="i2"><path d="M214.285714,70.3004292 L285.714286,70.3004292 L285.714286,140.600858 L285.714286,210.901288 L214.285714,210.901288 L214.285714,280 L71.4285714,280 L0,280 L0,209.699571 L71.4285714,209.699571 L214.285714,209.699571 L214.285714,140.600858 L214.285714,70.3004292 Z M0,70.3004292 L0,0 L71.4285714,0 L214.285714,0 L214.285714,70.3004292 L71.4285714,70.3004292 L0,70.3004292 Z"></path></clipPath></defs><g clip-path="url(#i0)"><g transform="translate(9.000000000000085 116.0)"><g clip-path="url(#i1)"><polygon points="0,0 285.714286,0 285.714286,280 0,280 0,0" stroke="none" fill="#18D7AC"></polygon></g></g><g transform="translate(223.2857142857143 115.99999999999989)"><g clip-path="url(#i2)"><polygon points="0,0 285.714286,0 285.714286,280 0,280 0,0" stroke="none" fill="#2618D7"></polygon></g></g></g></svg>