<?xml version="1.0" encoding="UTF-8"?><svg version="1.1" width="1799px" height="302px" viewBox="0 0 1799.0 302.0" xmlns="http://www.w3.org/2000/svg" xmlns:xlink="http://www.w3.org/1999/xlink"><defs><clipPath id="i0"><path d="M1799,0 L1799,302 L0,302 L0,0 L1799,0 Z"></path></clipPath><clipPath id="i1"><path d="M176.703452,32.2651934 C199.945527,32.2651934 211.566565,51.6243094 211.566565,74.6939227 C211.566565,97.7635359 199.945527,116.961326 176.703452,116.961326 C156.804414,116.961326 149.163184,106.636464 145.024184,95.8276243 L138.656492,95.8276243 L143.432261,110.346961 L143.432261,146 L117.961493,146 L117.961493,33.878453 L143.432261,33.878453 L143.432261,38.879558 L138.656492,53.398895 L145.024184,53.398895 C149.163184,42.5900552 156.804414,32.2651934 176.703452,32.2651934 Z M464.363935,10.4861878 L464.363935,33.878453 L490.789857,33.878453 L490.789857,56.4640884 L464.363935,56.4640884 L464.363935,94.3756906 L493.973703,92.7624309 L493.973703,115.348066 L452.424513,116.961326 C443.668936,117.283978 438.893167,112.121547 438.893167,103.248619 L438.893167,56.4640884 L419.790092,56.4640884 L419.790092,33.878453 L438.893167,33.878453 L438.893167,18.5524862 L464.363935,10.4861878 Z M49.1904203,0 C83.5759568,0 99.0176098,17.7458564 99.0176098,40.3314917 L73.546842,40.3314917 C73.546842,26.4574586 63.0401503,22.5856354 49.1904203,22.5856354 C37.7285748,22.5856354 30.5649213,25.1668508 30.5649213,30.9745856 C30.5649213,36.1370166 33.2711904,38.0729282 51.2599202,44.2033149 C71.954919,51.3016575 103.634186,60.3359116 103.634186,84.0508287 C103.634186,103.571271 90.102841,116.961326 55.5581122,116.961326 C15.1232684,116.961326 0,100.183425 0,71.4674033 L25.4707678,71.4674033 C25.4707678,88.8906077 34.0671519,94.3756906 56.3540737,94.3756906 C72.7508805,94.3756906 78.1634186,90.5038674 78.1634186,84.3734807 C78.1634186,76.1458564 64.472881,72.4353591 48.0760742,66.7889503 C24.3564217,58.7226519 5.09415356,52.2696133 5.09415356,30.0066298 C5.09415356,10.6475138 20.2174219,0 49.1904203,0 Z M266.6471,32.2651934 C291.640291,32.2651934 309.151444,47.2685083 309.151444,71.9513812 L309.151444,80.0176796 L248.180794,80.0176796 C248.180794,89.3745856 254.86687,95.9889503 269.353369,95.9889503 C278.268138,95.9889503 284.954215,92.7624309 286.546138,86.6320442 L312.016905,86.6320442 C310.424982,98.4088398 297.212022,116.961326 269.353369,116.961326 C238.470063,116.961326 224.301949,96.6342541 224.301949,73.5646409 C224.301949,47.7524862 241.653909,32.2651934 266.6471,32.2651934 Z M368.689364,32.2651934 C390.657901,32.2651934 410.716131,44.3646409 411.830477,67.5955801 L386.359709,67.5955801 C385.404555,60.3359116 378.877671,54.8508287 368.689364,54.8508287 C356.590749,54.8508287 350.223057,62.1104972 350.223057,74.5325967 C350.223057,87.1160221 356.590749,94.3756906 368.689364,94.3756906 C378.877671,94.3756906 385.404555,88.8906077 386.359709,81.6309392 L411.830477,81.6309392 C410.716131,104.861878 390.657901,116.961326 368.689364,116.961326 C343.059404,116.961326 324.752289,101.796685 324.752289,74.5325967 C324.752289,47.4298343 343.059404,32.2651934 368.689364,32.2651934 Z M550.486969,32.2651934 C575.639352,32.2651934 595.697582,46.1392265 595.697582,74.5325967 C595.697582,103.087293 575.639352,116.961326 550.486969,116.961326 C525.175393,116.961326 505.117164,103.087293 505.117164,74.5325967 C505.117164,46.1392265 525.175393,32.2651934 550.486969,32.2651934 Z M624.949685,32.5840284 L625.307349,32.5878453 L678,33.878453 L678,56.4640884 L637.087579,55.4961326 L637.087579,115.348066 L611.616811,115.348066 L611.616811,46.1392265 C611.616811,37.2662983 616.551773,32.4265193 625.307349,32.5878453 Z M164.764029,54.8508287 C151.073491,54.8508287 143.432261,60.8198895 143.432261,74.6939227 C143.432261,88.5679558 151.073491,94.3756906 164.764029,94.3756906 C178.454567,94.3756906 186.095797,88.5679558 186.095797,74.6939227 C186.095797,60.8198895 178.454567,54.8508287 164.764029,54.8508287 Z M550.486969,54.8508287 C538.388354,54.8508287 530.587931,60.9812155 530.587931,74.5325967 C530.587931,88.2453039 538.388354,94.3756906 550.486969,94.3756906 C562.426391,94.3756906 570.226814,88.2453039 570.226814,74.5325967 C570.226814,60.9812155 562.426391,54.8508287 550.486969,54.8508287 Z M266.6471,53.2375691 C252.478986,53.2375691 248.180794,59.3679558 248.180794,65.4983425 L285.272599,65.4983425 C285.272599,59.3679558 280.815215,53.2375691 266.6471,53.2375691 Z"></path></clipPath><clipPath id="i2"><path d="M228.571429,56.2403433 L228.571429,168.72103 L171.428571,168.72103 L171.428571,224 L0,224 L0,167.759657 L171.428571,167.759657 L171.428571,56.2403433 L228.571429,56.2403433 Z M0,0 L171.428571,0 L171.428571,56.2403433 L57.1428571,56.2403433 L57.1428571,112.480687 L0,112.480687 L0,56.2403433 L0,0 Z"></path></clipPath><clipPath id="i3"><path d="M57.1428571,224 L0,224 L0,167.759657 L57.1428571,167.759657 L114.285714,167.759657 L171.428571,167.759657 L171.428571,56.2403433 L228.571429,56.2403433 L228.571429,168.72103 L171.428571,168.72103 L171.428571,224 L114.285714,224 L57.1428571,224 Z M57.1428571,56.2403433 L0,56.2403433 L0,0 L57.1428571,0 L114.285714,0 L171.428571,0 L171.428571,56.2403433 L114.285714,56.2403433 L57.1428571,56.2403433 Z"></path></clipPath><linearGradient id="i4" x1="228.571429px" y1="71.09375px" x2="0px" y2="71.09375px" gradientUnits="userSpaceOnUse"><stop stop-color="#FFFFFF" offset="0%"></stop><stop stop-color="rgba(255, 255, 255, 0)" offset="100%"></stop></linearGradient></defs><g clip-path="url(#i0)"><g clip-path="url(#i0)"><polygon points="0,0 1799,0 1799,302 0,302 0,0" stroke="none" fill="#18D7AC" opacity="1%"></polygon></g><g transform="translate(0.0 89.0)"><g clip-path="url(#i1)"><polygon points="0,0 678,0 678,146 0,146 0,0" stroke="none" fill="#FFFFFF"></polygon></g></g><g transform="translate(726.0 39.0)"><g clip-path="url(#i2)"><polygon points="0,0 228.571429,0 228.571429,224 0,224 0,0" stroke="none" fill="#FFFFFF"></polygon></g><g transform="translate(171.42857142857133 0.0)"><g clip-path="url(#i3)"><polygon points="0,0 228.571429,0 228.571429,224 0,224 0,0" stroke="none" fill="url(#i4)"></polygon></g></g></g></g></svg>